<svg width="1169" height="1161" viewBox="0 0 1169 1161" fill="none" xmlns="http://www.w3.org/2000/svg">
<path d="M572.5 332.999L761 440.249V654.749L572.5 761.999L384 654.749V440.249L572.5 332.999Z" fill="#CEA86D"/>
<path d="M578 987.999L954 771.999L766 663.999L578 771.999V987.999Z" fill="#1C2138"/>
<path d="M193 771.999L568.062 989.624L567.592 772.812L380.062 663.999L193 771.999Z" fill="#CEA86D"/>
<path d="M567 107.999L191 323.999L379 431.999L567 323.999L567 107.999Z" fill="#1C2138"/>
<path d="M188 329.999L187.062 763.625L374.592 654.812L375.062 437.999L188 329.999Z" fill="#1C2138"/>
<path d="M957.592 766.625L958.53 332.999L771 441.812L770.53 658.625L957.592 766.625Z" fill="#CEA86D"/>
<path d="M953.592 325.625L578.53 108L579 324.812L766.53 433.625L953.592 325.625Z" fill="#1C2138"/>
<path d="M871 1160.5H1169" stroke="black"/>
</svg>
